<svg width="99" height="25" viewBox="0 0 99 25" fill="none" xmlns="http://www.w3.org/2000/svg">
<g clip-path="url(#clip0)">
<path d="M15.7231 7.83539C15.7231 8.34272 15.3307 8.73731 14.8262 8.73731C14.3218 8.73731 13.9294 8.34272 13.9294 7.83539C13.9294 7.32806 14.3218 6.93347 14.8262 6.93347C15.3307 6.93347 15.7231 7.32806 15.7231 7.83539Z" fill="#00AFAA"/>
<path d="M19.4787 22.717C19.2545 22.717 19.0303 22.6043 18.8901 22.4352C18.6659 22.1251 18.722 21.6742 19.0303 21.4205C21.861 19.3348 23.5426 16.009 23.5426 12.4859C23.5706 6.39797 18.6099 1.40925 12.5 1.40925C11.9675 1.40925 11.435 1.43743 10.9025 1.52199V17.1928C10.9025 17.5874 10.5942 17.8974 10.1738 17.8974C9.78139 17.8974 9.44507 17.5874 9.44507 17.1928V0.90192C9.44507 0.563702 9.69731 0.253668 10.0336 0.197298C10.8464 0.0281887 11.6592 -0.056366 12.5 -0.056366C19.3946 -0.056366 25 5.55243 25 12.4577C25 16.4318 23.0942 20.2086 19.8991 22.5479C19.759 22.6888 19.6188 22.717 19.4787 22.717Z" fill="#00AFAA"/>
<path d="M12.5 25.0282C5.60538 25.0282 0 19.3912 0 12.5141C0 8.54002 1.90583 4.76324 5.1009 2.4239C5.43722 2.17023 5.88565 2.25479 6.10987 2.56482C6.33408 2.87486 6.27803 3.32581 5.96973 3.57948C3.11099 5.63698 1.42937 8.99098 1.42937 12.5141C1.42937 18.6302 6.39013 23.5908 12.5 23.5908C13.0325 23.5908 13.565 23.5626 14.0975 23.478V13.1905C14.0975 12.7959 14.4058 12.4859 14.8262 12.4859C15.2186 12.4859 15.5549 12.7959 15.5549 13.1905V24.0699C15.5549 24.4081 15.3027 24.7181 14.9664 24.7745C14.1536 24.9436 13.3408 25.0282 12.5 25.0282Z" fill="#00AFAA"/>
</g>
<g clip-path="url(#clip1)">
<path d="M32.036 15.1807H33.6192C33.7272 16.0843 34.087 16.8434 35.5983 16.8434C36.5698 16.8434 37.2895 16.3012 37.2895 15.4699C37.2895 14.6385 36.8937 14.3494 35.4184 14.0964C33.2954 13.8072 32.2519 13.1566 32.2519 11.494C32.2519 10.0482 33.5113 8.9277 35.3464 8.9277C37.2535 8.9277 38.4049 9.79517 38.5849 11.5301H37.0736C36.8937 10.5904 36.3899 10.1928 35.3464 10.1928C34.3389 10.1928 33.7991 10.6626 33.7991 11.3494C33.7991 12.0723 34.087 12.4337 35.6343 12.6506C37.7213 12.9398 38.8367 13.5542 38.8367 15.3253C38.8367 16.8795 37.5414 18.0723 35.5623 18.0723C33.1874 18.0723 32.1799 16.8795 32.036 15.1807Z" fill="#00AFAA"/>
<path d="M42.0392 9.03613H44.2701L46.609 15.1084L48.9119 9.03613H51.1069V17.9638H49.4517V11.2048L46.7889 17.9638H46.2492L43.5145 11.2048V17.9638H42.0392V9.03613Z" fill="#00AFAA"/>
<path d="M76.2229 10.3373H73.7401V9.03613H80.3969V10.3373H77.9141V17.9638H76.2229V10.3373Z" fill="#00AFAA"/>
<path d="M84.0671 13.2289H80.7207V14.5301H84.0671V13.2289Z" fill="#00AFAA"/>
<path d="M62.0816 17.9638L59.131 9.03613H56.9361L53.9495 17.9638H55.5328L57.9436 10.3735L59.167 14.241H58.0875L57.6917 15.5422H59.5628L60.3545 17.9638H62.0816Z" fill="#00AFAA"/>
<path d="M88.0252 9.03613H86.334V17.9638H88.0252V9.03613Z" fill="#00AFAA"/>
<path d="M94.3222 9.03613H91.6235V17.9638H93.2787V16.6626V10.3373H94.2503C96.3373 10.3373 97.2368 11.494 97.2368 13.4096V13.5181C97.2368 15.1807 96.5532 16.265 95.1498 16.5542V17.9277C97.7406 17.6385 99 15.9036 99 13.5181V13.4096C98.964 10.8072 97.4527 9.03613 94.3222 9.03613Z" fill="#00AFAA"/>
<path d="M69.2782 14.0964C70.3937 13.8072 71.2573 13.0843 71.2573 11.7108V11.6386C71.2573 9.83133 69.8899 9 67.9109 9H64.9243V17.9277H66.5795V10.3012H67.9109C68.9903 10.3012 69.6021 10.6627 69.6021 11.6747V11.7108C69.6021 12.6506 69.0263 13.1205 67.9109 13.1205H67.623V14.3133L69.9619 17.9277H71.761L69.2782 14.0964Z" fill="#00AFAA"/>
</g>
<defs>
<clipPath id="clip0">
<rect width="25" height="25" fill="white"/>
</clipPath>
<clipPath id="clip1">
<rect width="67" height="9" fill="white" transform="translate(32 9)"/>
</clipPath>
</defs>
</svg>
